<svg aria-hidden="true" style="position: absolute; width: 0; height: 0; overflow: hidden;" version="1.1" xmlns="http://www.w3.org/2000/svg" xmlns:xlink="http://www.w3.org/1999/xlink">
<defs>
<symbol id="arrow-down" viewBox="0 0 24 24">
<path fill="none" stroke="#fff" style="stroke: var(--color1, #fff)" stroke-linejoin="round" stroke-linecap="round" stroke-miterlimit="4" stroke-width="1.5" d="M19 8.5l-7 7-7-7"></path>
</symbol>
<symbol id="play" viewBox="0 0 24 24">
<path d="M5.564 21.6c-0.203 0-0.397-0.079-0.54-0.22s-0.224-0.331-0.224-0.53v-16.5c0-0.13 0.035-0.258 0.1-0.372s0.16-0.208 0.275-0.274c0.114-0.066 0.244-0.102 0.377-0.104s0.264 0.030 0.38 0.093l15.273 8.25c0.12 0.065 0.219 0.16 0.289 0.275s0.106 0.247 0.106 0.381c0 0.134-0.037 0.266-0.106 0.382s-0.169 0.211-0.289 0.276l-15.273 8.25c-0.113 0.061-0.239 0.093-0.368 0.093z"></path>
</symbol>
<symbol id="star" viewBox="0 0 25 24">
<path d="M12.522 4.224l2.318 5.811 6.236 0.428-4.795 4.040 1.517 6.088-5.276-3.335-5.276 3.335 1.517-6.088-4.795-4.040 6.236-0.428 2.318-5.811z"></path>
</symbol>
<symbol id="apple" viewBox="0 0 24 24">
<path fill="#fff" style="fill: var(--color1, #fff)" d="M17.377 12.569c-0.009-1.639 0.698-2.875 2.127-3.786-0.799-1.202-2.007-1.863-3.601-1.99-1.508-0.125-3.159 0.923-3.763 0.923-0.639 0-2.099-0.88-3.248-0.88-2.371 0.038-4.892 1.986-4.892 5.947 0 1.171 0.204 2.38 0.611 3.625 0.545 1.639 2.509 5.656 4.557 5.591 1.071-0.026 1.829-0.798 3.223-0.798 1.353 0 2.053 0.798 3.248 0.798 2.067-0.031 3.843-3.682 4.361-5.327-2.772-1.372-2.623-4.019-2.623-4.103zM14.971 5.238c1.161-1.447 1.055-2.764 1.021-3.238-1.026 0.063-2.211 0.733-2.886 1.558-0.744 0.885-1.181 1.978-1.087 3.211 1.108 0.089 2.12-0.51 2.953-1.531z"></path>
</symbol>
<symbol id="android" viewBox="0 0 24 24">
<path fill="#fff" style="fill: var(--color1, #fff)" d="M6.329 16.884c0 0.548 0.448 0.996 0.999 0.996h1.142v2.822c0 0.715 0.574 1.298 1.28 1.298 0.708 0 1.28-0.581 1.28-1.298v-2.824h1.993v2.822c0 0.715 0.574 1.298 1.28 1.298 0.708 0 1.28-0.581 1.28-1.298v-2.822h1.142c0.551 0 0.999-0.448 0.999-0.996v-9.262h-11.394v9.264zM14.701 2.82l1.053-1.523c0.061-0.089 0.047-0.209-0.035-0.267-0.082-0.056-0.199-0.028-0.26 0.061l-1.092 1.584c-0.72-0.284-1.521-0.441-2.363-0.441s-1.643 0.157-2.363 0.441l-1.092-1.582c-0.061-0.089-0.178-0.12-0.26-0.061-0.082 0.056-0.096 0.173-0.035 0.267l1.053 1.523c-1.674 0.778-2.846 2.252-2.996 3.975h11.394c-0.155-1.725-1.329-3.199-3.001-3.977zM9.597 5.222c-0.125 0-0.247-0.037-0.35-0.106s-0.185-0.168-0.232-0.283c-0.048-0.115-0.060-0.242-0.036-0.364s0.084-0.235 0.173-0.323c0.088-0.088 0.201-0.148 0.323-0.173s0.249-0.012 0.364 0.036c0.115 0.048 0.214 0.129 0.283 0.232s0.106 0.226 0.106 0.35c-0 0.167-0.067 0.327-0.185 0.445s-0.278 0.185-0.445 0.185zM14.483 5.222c-0.125 0-0.247-0.037-0.35-0.106s-0.184-0.168-0.232-0.283c-0.048-0.115-0.060-0.242-0.036-0.364s0.084-0.235 0.173-0.323c0.088-0.088 0.201-0.148 0.323-0.173s0.249-0.012 0.364 0.036 0.214 0.129 0.283 0.232c0.069 0.104 0.106 0.226 0.106 0.35-0 0.167-0.067 0.327-0.185 0.445s-0.278 0.185-0.445 0.185zM19.72 7.582c-0.708 0-1.28 0.581-1.28 1.298v5.072c0 0.715 0.574 1.298 1.28 1.298 0.708 0 1.28-0.581 1.28-1.298v-5.074c0.002-0.717-0.57-1.296-1.28-1.296zM4.28 7.582c-0.708 0-1.28 0.581-1.28 1.298v5.072c0 0.715 0.574 1.298 1.28 1.298 0.708 0 1.28-0.581 1.28-1.298v-5.074c0-0.717-0.574-1.296-1.28-1.296z"></path>
</symbol>
<symbol id="poker-table" viewBox="0 0 32 32">
<path d="M17 16h2v2h-2v-2z"></path>
<path d="M21 16h2v2h-2v-2z"></path>
<path d="M13 16h2v2h-2v-2z"></path>
<path d="M9 16h2v2h-2v-2z"></path>
<path d="M21.648 6h-11.297c-5.708 0-10.352 4.71-10.352 10.5s4.644 10.5 10.352 10.5h11.297c5.708 0 10.352-4.71 10.352-10.5s-4.644-10.5-10.352-10.5zM11.289 23.18h3.773v1.918h-3.773v-1.918zM16.938 23.18h3.773v1.918h-3.773v-1.918zM21.648 21.279h-11.297c-2.598 0-4.711-2.144-4.711-4.779s2.113-4.779 4.711-4.779h11.297c2.598 0 4.711 2.144 4.711 4.779s-2.113 4.779-4.711 4.779zM16.938 9.82v-1.918h3.773v1.918h-3.773zM15.063 9.82h-3.773v-1.918h3.773v1.918zM1.875 16.5c0-4.42 3.305-8.070 7.539-8.545v1.933c-3.189 0.463-5.648 3.252-5.648 6.612s2.459 6.149 5.648 6.612v1.933c-4.234-0.475-7.539-4.126-7.539-8.545zM22.586 25.045v-1.933c3.189-0.463 5.648-3.252 5.648-6.613s-2.459-6.149-5.648-6.612v-1.933c4.235 0.475 7.539 4.126 7.539 8.545s-3.305 8.070-7.539 8.545z"></path>
</symbol>
<symbol id="casino" viewBox="0 0 32 32">
<path d="M7 20l1.42-1.408 1.42 1.408-1.42 1.408-1.42-1.408z"></path>
<path d="M22 20l1.42-1.408 1.42 1.408-1.42 1.408-1.42-1.408z"></path>
<path d="M32 8.593v-6.593h-32v6.593h3.766v6.6l-1.658 0.94c-1.3 0.736-2.107 2.116-2.107 3.601s0.807 2.864 2.107 3.601l9.91 5.616c1.211 0.686 2.588 1.049 3.983 1.049s2.772-0.363 3.983-1.049l9.91-5.616c1.3-0.736 2.107-2.116 2.107-3.601s-0.807-2.864-2.107-3.601l-1.659-0.94v-6.6h3.766zM1.875 3.859h28.25v2.874h-28.25v-2.874zM19.983 10.518c-1.211-0.686-2.588-1.049-3.983-1.049s-2.772 0.363-3.983 1.049l-2.611 1.48v-3.404h13.188v3.404l-2.611-1.48zM5.641 8.593h1.891v4.467l-1.891 1.071v-5.538zM30.125 19.734c0 0.819-0.445 1.58-1.162 1.986l-9.91 5.616c-0.928 0.526-1.983 0.804-3.052 0.804s-2.124-0.278-3.052-0.804l-9.91-5.616c-0.717-0.406-1.162-1.167-1.162-1.986s0.445-1.58 1.162-1.986l9.91-5.616c0.928-0.526 1.983-0.804 3.052-0.804s2.124 0.278 3.052 0.804l9.91 5.616c0.717 0.406 1.162 1.167 1.162 1.986zM26.359 14.131l-1.891-1.071v-4.467h1.891v5.538z"></path>
<path d="M15.5 15c-2.932 1.862-4.513 3.647-4.5 5.491 0 1.732 1.329 3.141 2.962 3.141 0.21 0 0.418-0.024 0.62-0.070v1.438h1.835v-1.438c0.202 0.046 0.41 0.070 0.62 0.070 1.633 0 2.962-1.409 2.962-3.141 0.035-1.98-1.861-3.809-4.5-5.491zM17.038 21.685c-0.603 0.074-1.191-0.84-1.538-1.245-0.4 0.443-0.842 1.26-1.538 1.245-0.621 0-1.126-0.536-1.126-1.195 0-1.046 1.354-2.257 2.664-3.184 1.31 0.927 2.664 2.137 2.664 3.184 0 0.659-0.505 1.195-1.126 1.195z"></path>
</symbol>
<symbol id="trophy" viewBox="0 0 32 32">
<path d="M13 26h6v2h-6v-2z"></path>
<path d="M19.495 6.427l-2.195-0.335-0.982-2.092h-1.635l-0.982 2.092-2.196 0.335-0.505 1.635 1.589 1.628-0.375 2.299 1.323 1.010 1.964-1.085 1.964 1.085 1.323-1.010-0.375-2.299 1.589-1.628-0.505-1.635zM16.679 10.402l-1.179-0.652-1.179 0.652 0.225-1.381-0.954-0.978 1.319-0.201 0.59-1.256 0.59 1.256 1.318 0.201-0.954 0.978 0.225 1.381z"></path>
<path d="M24.306 1.883v-1.883h-16.613v1.883h-3.694v5.585c0 2.948 2.205 5.382 5.023 5.675 0.617 0.971 1.422 1.805 2.364 2.449-0.094 1.58 0.541 3.172 1.823 4.154-0.105 1.049-0.564 2.070-1.283 2.849h-2.388v9.406h12.92v-9.406h-2.388c-0.719-0.779-1.178-1.801-1.283-2.851 1.209-0.904 1.925-2.524 1.823-4.152 0.942-0.643 1.748-1.478 2.364-2.449 2.817-0.293 5.023-2.726 5.023-5.675v-5.585h-3.694zM5.839 7.468v-3.71h1.854v4.794c0 0.832 0.119 1.636 0.339 2.397-1.293-0.606-2.194-1.938-2.194-3.481zM20.621 30.125h-9.241v-5.656h9.241v5.656zM17.803 22.594h-3.606c0.351-0.628 0.604-1.312 0.745-2.015 0.343 0.082 0.697 0.125 1.058 0.125 0.364 0 0.717-0.044 1.057-0.126 0.141 0.704 0.395 1.388 0.746 2.017zM16 18.828c-1.24 0.022-2.486-0.957-2.721-2.275 0.853 0.302 1.768 0.467 2.721 0.467s1.867-0.165 2.72-0.467c-0.253 1.295-1.377 2.274-2.72 2.274zM16 15.146c-3.566 0-6.467-2.958-6.467-6.594v-6.677h12.935v6.677c0 3.636-2.901 6.594-6.467 6.594zM26.161 7.468c0 1.543-0.901 2.875-2.194 3.481 0.22-0.76 0.339-1.565 0.339-2.397v-4.794h1.854v3.71z"></path>
</symbol>
<symbol id="credit-card" viewBox="0 0 32 32">
<path d="M4 22h6v2h-6v-2z"></path>
<path d="M11 22h2v2h-2v-2z"></path>
<path d="M15 22h6v2h-6v-2z"></path>
<path d="M23 22h2v2h-2v-2z"></path>
<path d="M32 5h-28.234v3.819h-3.766v19.181h28.234v-3.819h3.766v-19.181zM5.641 6.902h24.484v7.738h-1.891v-5.821h-22.594v-1.918zM28.234 16.542h1.891v1.918h-1.891v-1.918zM26.359 26.098h-24.484v-15.377h24.484v15.377zM28.234 22.279v-1.918h1.891v1.918h-1.891z"></path>
<path d="M12 13h-8v6h8v-6zM10.006 17.006h-4.012v-2.011h4.012v2.011z"></path>
</symbol>
<symbol id="mobile" viewBox="0 0 32 32">
<path stroke-linejoin="miter" stroke-linecap="butt" stroke-miterlimit="4" stroke-width="1" d="M22.5 2h-12c-0.662 0.004-1.296 0.288-1.764 0.79s-0.733 1.184-0.736 1.895v23.63c0.003 0.711 0.268 1.392 0.736 1.895s1.102 0.787 1.764 0.79h12c0.662-0.003 1.296-0.288 1.764-0.79s0.733-1.184 0.736-1.895v-23.63c-0.003-0.711-0.268-1.392-0.736-1.895s-1.102-0.787-1.764-0.79zM9 7.37h15v18.259h-15v-18.259zM10.5 3.074h12c0.398 0 0.779 0.17 1.061 0.472s0.439 0.712 0.439 1.139v1.611h-15v-1.611c0-0.427 0.158-0.837 0.439-1.139s0.663-0.472 1.061-0.472zM22.5 29.926h-12c-0.398 0-0.779-0.17-1.061-0.472s-0.439-0.712-0.439-1.139v-1.611h15v1.611c0 0.427-0.158 0.837-0.439 1.139s-0.663 0.472-1.061 0.472z"></path>
</symbol>
<symbol id="crown" viewBox="0 0 32 32">
<path d="M8 24h17v2h-17v-2z"></path>
<path d="M9 18l1.42-1.408 1.42 1.408-1.42 1.408-1.42-1.408z"></path>
<path d="M20 18l1.42-1.408 1.42 1.408-1.42 1.408-1.42-1.408z"></path>
<path d="M12 16.5l3.5 4.5 3.5-4.5-3.5-4.5-3.5 4.5zM15.5 17.992l-1.16-1.492 1.16-1.492 1.16 1.492-1.16 1.492z"></path>
<path d="M32 12.266c0-1.542-1.265-2.797-2.82-2.797-1.539 0-2.793 1.228-2.819 2.748l-1.843 0.608c-1.409 0.465-2.96-0.129-3.689-1.412l-2.709-4.775c0.435-0.492 0.7-1.136 0.7-1.841 0-1.542-1.265-2.797-2.82-2.797s-2.82 1.255-2.82 2.797c0 0.705 0.265 1.349 0.7 1.841l-2.709 4.775c-0.728 1.284-2.28 1.877-3.689 1.412l-1.843-0.608c-0.027-1.52-1.28-2.748-2.819-2.748-1.555 0-2.82 1.255-2.82 2.797 0 1.408 1.055 2.576 2.423 2.768l1.137 5.638h-1.109v1.859h1.315v5.609h-1.315v1.859h27.1v-1.859h-1.315v-5.609h1.315v-1.859h-1.109l1.137-5.638c1.367-0.192 2.423-1.36 2.423-2.768zM29.18 11.328c0.521 0 0.945 0.421 0.945 0.938s-0.424 0.937-0.945 0.937c-0.521 0-0.945-0.421-0.945-0.937s0.424-0.938 0.945-0.938zM16 3.86c0.521 0 0.945 0.421 0.945 0.937s-0.424 0.937-0.945 0.937c-0.521 0-0.945-0.421-0.945-0.937s0.424-0.937 0.945-0.937zM1.875 12.266c0-0.517 0.424-0.938 0.945-0.938s0.945 0.421 0.945 0.938c0 0.517-0.424 0.937-0.945 0.937s-0.945-0.421-0.945-0.937zM26.359 28.141h-20.719v-5.609h20.719v5.609zM5.472 20.672l-1.211-6.003c0.303-0.179 0.569-0.413 0.785-0.688l1.844 0.609c2.149 0.736 4.769-0.188 5.915-2.265l2.708-4.773c0.158 0.027 0.321 0.043 0.487 0.043s0.329-0.015 0.487-0.043l2.708 4.773c1.167 2.068 3.671 2.997 5.915 2.265l1.844-0.609c0.216 0.275 0.482 0.509 0.785 0.688l-1.211 6.003h-21.057z"></path>
</symbol>
<symbol id="croupier" viewBox="0 0 32 32">
<path d="M11 27h2v2h-2v-2z"></path>
<path d="M29.296 24.208c-0.385-1.76-1.716-3.161-3.475-3.655l-5.101-1.433-0.428-2.129c1.381-1.154 2.267-2.923 2.267-4.902v-3.601c0.628-0.426 1.453-1.327 1.453-3.124 0.071-2.763-2.446-5.428-5.319-5.362-0.898 0-1.896 0.195-2.953 0.401-2.266 0.506-4.498 0.751-6.377-0.359-1.185 2.991-0.837 5.801 1.078 8.226v3.818c0 1.98 0.886 3.748 2.267 4.902l-0.428 2.129-5.101 1.433c-1.758 0.494-3.090 1.895-3.475 3.655l-1.704 7.792h29l-1.704-7.792zM16.5 27.089c-0.246-0.488-0.537-0.953-0.871-1.389l-0.617-0.806 1.487-1.892 1.487 1.892-0.617 0.806c-0.334 0.436-0.625 0.902-0.871 1.389zM14.109 26.828c0.736 0.962 1.209 2.107 1.373 3.297h-5.873v-8.305l0.549-0.154 3.951 5.162zM18.891 26.828l3.951-5.162 0.549 0.154v8.305h-5.873c0.164-1.19 0.637-2.336 1.373-3.297zM20.88 21.114l-1.705 2.227-1.201-1.528 2.012-0.95 0.894 0.251zM11.843 6.993c-1.003-1.289-1.438-2.905-1.215-4.449 1.802 0.415 3.738 0.038 5.482-0.303 0.963-0.188 1.872-0.365 2.583-0.365 1.851 0 3.415 1.597 3.415 3.487 0 0.287-0.032 0.525-0.083 0.724-0.667-1.116-2.069-1.771-3.456-1.662-1.267 1.579-3.257 2.578-5.326 2.567l-1.4 0zM12.345 8.868h0.898c2.311 0 4.518-0.915 6.132-2.525 0.733 0.167 1.281 0.816 1.281 1.588v4.158c0 2.435-1.864 4.416-4.155 4.416s-4.155-1.981-4.155-4.416v-3.22h0zM16.5 18.379c0.721 0 1.413-0.132 2.056-0.373l0.267 1.327-2.322 1.097-2.322-1.097 0.267-1.327c0.642 0.241 1.334 0.373 2.056 0.373zM13.015 20.863l2.012 0.95-1.201 1.528-1.705-2.227 0.894-0.251zM5.565 24.603c0.237-1.082 1.055-1.943 2.136-2.247l0.004-0.001v7.771h-3.348l1.208-5.522zM25.294 30.125v-7.771l0.004 0.001c1.081 0.304 1.899 1.165 2.136 2.247l1.208 5.522h-3.348z"></path>
</symbol>
<symbol id="online-casino" viewBox="0 0 32 32">
<path d="M32 24.398v-22.398h-32v22.398h11.297v2.805c0 0.517-0.424 0.938-0.945 0.938h-1.883v1.859h15.062v-1.859h-1.883c-0.521 0-0.945-0.421-0.945-0.938v-2.805h11.297zM1.875 3.859h28.25v14.945h-28.25v-14.945zM13.008 28.141c0.105-0.293 0.164-0.609 0.164-0.938v-2.805h5.656v2.805c0 0.329 0.058 0.644 0.163 0.938h-5.983zM1.875 22.539v-1.875h28.25v1.875h-28.25z"></path>
<path d="M7 11l1.42-1.408 1.42 1.408-1.42 1.408-1.42-1.408z"></path>
<path d="M22 11l1.42-1.408 1.42 1.408-1.42 1.408-1.42-1.408z"></path>
<path d="M15.5 6c-2.932 1.862-4.513 3.647-4.5 5.49 0 1.732 1.329 3.141 2.962 3.141 0.21 0 0.418-0.024 0.62-0.070v1.438h1.835v-1.438c0.202 0.046 0.41 0.070 0.62 0.070 1.633 0 2.962-1.409 2.962-3.141 0.035-1.98-1.861-3.809-4.5-5.49zM17.038 12.685c-0.603 0.074-1.19-0.84-1.538-1.245-0.4 0.443-0.842 1.26-1.538 1.245-0.621 0-1.126-0.536-1.126-1.195 0-1.046 1.354-2.257 2.664-3.184 1.311 0.927 2.664 2.137 2.664 3.184 0 0.659-0.505 1.195-1.126 1.195z"></path>
</symbol>
<symbol id="money" viewBox="0 0 32 32">
<path d="M26 7c1.654 0 3-1.271 3-2.833 0-2.322-3-4.167-3-4.167s-3 1.845-3 4.167c0 1.562 1.346 2.833 3 2.833zM26 2.576c0.523 0.552 1.006 1.211 1.006 1.591 0 0.524-0.451 0.95-1.006 0.95s-1.006-0.426-1.006-0.95c0-0.384 0.479-1.037 1.005-1.591z"></path>
<path d="M15.958 22.409h1.084c0.546 0 0.99 0.41 0.99 0.914s-0.444 0.914-0.99 0.914h-1.104c-0.527 0-0.955-0.395-0.955-0.882h-1.968c0 1.356 1.088 2.481 2.5 2.67v0.975h1.968v-0.977c1.422-0.198 2.516-1.333 2.516-2.701 0-1.506-1.327-2.731-2.958-2.731h-1.084c-0.546 0-0.99-0.41-0.99-0.914s0.444-0.914 0.99-0.914h1.059c0.546 0 0.991 0.41 0.991 0.915h1.968c0-1.36-1.082-2.491-2.492-2.698v-0.98h-1.968v0.977c-1.422 0.198-2.516 1.333-2.516 2.701 0 1.506 1.327 2.731 2.958 2.731z"></path>
<path d="M24.634 11.297c-0.050-2.952-1.767-4.813-4.196-5.891-0.237 0.402-0.386 0.885-0.817 1.231-0.248 0.185-0.417 0.167-0.609 0.078-0.304-0.141-0.46-0.287-0.119-1.646 0.576-3.131-1.856-4.28-3.672-5.070-0.171 1.317-0.006 2.511-1.461 3.492-1.791 0.956-1.582 2.312-1.457 3.122 0.106 0.69 0.116 0.904-0.341 1.248-0.099 0.074-0.33 0.248-0.862 0.001-0.693-0.357-0.872-0.694-1.322-1.117-1.474 1.183-2.35 2.714-2.407 4.551h-7.37v20.703h32v-20.703h-7.366zM9.876 9.33c0.867 0.527 2.102 0.866 3.212 0.030 1.375-1.033 1.182-2.284 1.067-3.031-0.083-0.564-0.174-0.841 0.487-1.183 1.025-0.547 1.602-1.44 1.923-2.206 0.004 0.005 0.009 0.009 0.013 0.014 0.485 0.513 0.646 1.056 0.495 1.66-0.157 0.625-0.293 1.237-0.234 1.856 0.084 0.893 0.563 1.566 1.384 1.947 0.934 0.442 2.028 0.246 2.818-0.531 1.078 0.792 1.708 2.057 1.717 3.411h-13.514c0.034-0.713 0.253-1.402 0.632-1.967zM23.531 20.308l-0.945 0.945v-4.317h2.055c0.283 0.801 0.919 1.437 1.72 1.72v5.981c-0.801 0.283-1.437 0.919-1.72 1.72h-2.055v-4.344l0.945 0.945 1.326-1.326-1.326-1.326zM9.416 21.256l-0.948-0.948-1.326 1.326 1.326 1.326 0.948-0.948v4.346h-2.056c-0.283-0.801-0.919-1.437-1.72-1.72v-5.981c0.801-0.283 1.437-0.919 1.72-1.72h2.056v4.319zM9.416 15.062h-3.77v0.938c0 0.52-0.423 0.943-0.943 0.943h-0.938v9.41h0.938c0.52 0 0.943 0.423 0.943 0.943v0.938h3.77v1.891h-7.542v-16.953h7.542v1.89zM20.711 30.125h-9.419v-16.953h9.419v16.953zM30.125 30.125h-7.539v-1.891h3.77v-0.938c0-0.52 0.423-0.943 0.943-0.943h0.938v-9.41h-0.938c-0.52 0-0.943-0.423-0.943-0.943v-0.938h-3.77v-1.89h7.539v16.953z"></path>
</symbol>
<symbol id="icon-chat" viewBox="0 0 24 24">
<path d="M5 18.178v3.822l6.277-3.822h4.723c1.103 0 2-0.91 2-2.030v-8.119c0-1.119-0.897-2.030-2-2.030h-12c-1.103 0-2 0.91-2 2.030v8.119c0 1.119 0.897 2.030 2 2.030h1zM4 8.030h12v8.119h-5.277l-3.723 2.267v-2.267h-3v-8.119z"></path>
<path d="M20 2h-12c-1.103 0-2 0.897-2 2h12c1.103 0 2 0.897 2 2v8c1.103 0 2-0.897 2-2v-8c0-1.103-0.897-2-2-2z"></path>
</symbol>
<symbol id="icon-phone" viewBox="0 0 24 24">
<path stroke-linejoin="round" stroke-linecap="round" stroke-miterlimit="4" stroke-width="2" d="M10.554 6.241l-3.383-3.905c-0.39-0.45-1.105-0.448-1.558 0.006l-2.782 2.787c-0.828 0.829-1.065 2.060-0.586 3.047 2.862 5.925 7.64 10.709 13.561 13.579 0.986 0.479 2.216 0.242 3.044-0.587l2.808-2.813c0.455-0.455 0.456-1.174 0.002-1.564l-3.92-3.365c-0.41-0.352-1.047-0.306-1.458 0.106l-1.364 1.366c-0.070 0.073-0.162 0.122-0.262 0.137s-0.202-0.001-0.291-0.049c-2.23-1.284-4.079-3.136-5.36-5.367-0.048-0.089-0.065-0.192-0.049-0.292s0.064-0.192 0.137-0.262l1.36-1.361c0.412-0.414 0.457-1.054 0.101-1.465v0.001z"></path>
</symbol>
<symbol id="icon-mail" viewBox="0 0 24 24">
<path d="M20 20h-16c-0.53 0-1.039-0.211-1.414-0.586s-0.586-0.884-0.586-1.414v-12.087c0.022-0.515 0.243-1.002 0.616-1.358s0.869-0.555 1.384-0.555h16c0.53 0 1.039 0.211 1.414 0.586s0.586 0.884 0.586 1.414v12c0 0.53-0.211 1.039-0.586 1.414s-0.884 0.586-1.414 0.586zM4 7.868v10.132h16v-10.132l-8 5.332-8-5.332zM4.8 6l7.2 4.8 7.2-4.8h-14.4z"></path>
</symbol>
<symbol id="icon-location" viewBox="0 0 24 24">
<path stroke-linejoin="round" stroke-linecap="round" stroke-miterlimit="4" stroke-width="2" d="M12 13c1.657 0 3-1.343 3-3s-1.343-3-3-3-3 1.343-3 3c0 1.657 1.343 3 3 3z"></path>
<path stroke-linejoin="round" stroke-linecap="round" stroke-miterlimit="4" stroke-width="2" d="M12 2c-2.122 0-4.157 0.843-5.657 2.343s-2.343 3.535-2.343 5.657c0 1.892 0.402 3.13 1.5 4.5l6.5 7.5 6.5-7.5c1.098-1.37 1.5-2.608 1.5-4.5 0-2.122-0.843-4.157-2.343-5.657s-3.535-2.343-5.657-2.343v0z"></path>
</symbol>
<symbol id="icon-maps" viewBox="0 0 24 24">
<path fill="#34a853" style="fill: var(--color1, #34a853)" d="M9 17.942c0.687 0.862 1.312 1.77 1.871 2.718 0.477 0.891 0.676 1.496 1.025 2.569 0.214 0.593 0.407 0.77 0.823 0.77 0.453 0 0.658-0.301 0.817-0.767 0.33-1.014 0.588-1.788 0.996-2.519 0.801-1.412 1.796-2.667 2.774-3.872 0.265-0.341 1.976-2.329 2.747-3.898 0 0 0.947-1.723 0.947-4.13 0-2.251-0.934-3.813-0.934-3.813l-2.689 0.709-1.633 4.236-0.404 0.584-0.081 0.106-0.108 0.132-0.189 0.212-0.27 0.265-1.454 1.167-3.635 2.067-0.605 3.464z"></path>
<path fill="#fbbc04" style="fill: var(--color2, #fbbc04)" d="M5 11.794c0.896 1.964 2.623 3.691 3.792 5.206l6.208-7.059c0 0-0.875 1.098-2.461 1.098-1.767 0-3.195-1.355-3.195-3.063 0-1.171 0.734-1.976 0.734-1.976l-4.214 1.084-0.864 4.71z"></path>
<path fill="#4285f4" style="fill: var(--color3, #4285f4)" d="M15.048 0c2.086 0.663 3.872 2.054 4.952 4.106l-5.020 5.894c0 0 0.743-0.851 0.743-2.060 0-1.815-1.551-3.171-3.227-3.171-1.585 0-2.495 1.138-2.495 1.138v-3.713l5.048-2.194z"></path>
<path fill="#1a73e8" style="fill: var(--color4, #1a73e8)" d="M6 2.845c1.242-1.402 3.426-2.845 6.438-2.845 1.461 0 2.562 0.362 2.562 0.362l-5.029 5.638h-3.563l-0.408-3.155z"></path>
<path fill="#ea4335" style="fill: var(--color5, #ea4335)" d="M4.838 12c0 0-0.838-1.553-0.838-3.803 0-2.126 0.873-3.985 1.994-5.197l4.006 3.192-5.162 5.808z"></path>
</symbol>
 <symbol id="menu" viewBox="0 0 32 32">
      <path d="M6.4 11.733v-2.133h19.2v2.133h-19.2zM6.4 17.067h19.2v-2.133h-19.2v2.133zM6.4 22.4h19.2v-2.133h-19.2v2.133z"></path>
    </symbol>
</defs>
</svg>
